<?xml version="1.0" standalone="no"?><!DOCTYPE svg PUBLIC "-//W3C//DTD SVG 1.1//EN" "http://www.w3.org/Graphics/SVG/1.1/DTD/svg11.dtd"><svg t="1679717333631" class="icon" viewBox="0 0 1024 1024" version="1.1" xmlns="http://www.w3.org/2000/svg" p-id="1480" xmlns:xlink="http://www.w3.org/1999/xlink" width="48" height="48"><path d="M459.205587 338.073762c-45.769416 0-75.809593 32.153304-82.871429 82.871429-7.060813 50.718125 36.317137 101.45774 96.55815 101.45774 60.239989 0 79.612199-49.616024 79.612199-95.385441C552.504506 381.25012 504.97398 338.073762 459.205587 338.073762zM465.989083 500.651534c-46.786583 0-76.021417-43.497677-69.136613-80.478939 6.883781-36.981263 27.569916-61.58052 61.58052-61.58052s76.69373 31.386848 76.69373 72.742744C535.125697 472.691739 512.775666 500.651534 465.989083 500.651534z" p-id="1481" fill="#5E39B2"></path><path d="M649.897673 228.744751c-263.293615 0-356.438015 120.312156-426.040233 155.316391-69.602218 35.003212-67.290569 72.305793-49.967018 94.405113 17.322527 22.099321 26.117844 15.809057 62.126966 15.809057 36.009122 0 31.023574 11.252275 49.938366 22.278399 18.914792 11.027148 122.848932 83.175351 100.648304 83.175351-22.201651 0-22.922059-10.099009-42.643216-10.099009-19.72218 0-22.994714 7.049556-43.357484-4.411473s-35.176151 1.845021-64.584947 1.845021c-29.40982 0-63.461357-32.126698-72.355935-6.559393-8.894577 25.567305 33.892925 60.506049 72.838935 75.578326 38.946011 15.072277-7.842619 16.514115 109.947088 74.222445s219.795938 57.618279 303.45122 52.818973 204.335828-86.070284 204.335828-266.571265C854.233502 336.053756 747.777935 228.744751 649.897673 228.744751zM356.919992 430.587805c0-56.020898 46.287209-111.055328 102.308107-111.055328 56.021921 0 110.35948 45.414329 110.35948 101.435227 0 56.021921-14.969946 106.432031-82.725096 119.244848C419.108357 553.026392 356.919992 486.609727 356.919992 430.587805zM688.627766 727.649502c-82.789565 36.669154-207.353558 12.088316-186.677657 12.088316s93.647867-0.025583 160.722518-19.159362c83.614349-23.852244 121.141034-101.794407 121.141034-101.794407S771.417331 690.980347 688.627766 727.649502zM740.566696 397.799028c-74.515111-54.904471-173.555801-35.771715-173.555801-35.771715s118.733195-36.118616 194.853873 31.046087c76.120678 67.164702 54.4491 139.734508 54.4491 139.734508S815.08283 452.703499 740.566696 397.799028z" p-id="1482" fill="#5E39B2"></path></svg>